<svg xmlns="http://www.w3.org/2000/svg" height="371pt" version="1.1" viewBox="-12 1 371 371.613" width="371pt">
<g id="surface1">
<path d="M 260.726562 372 C 308.664062 372 347.527344 333.136719 347.527344 285.199219 C 347.527344 237.261719 308.664062 198.398438 260.726562 198.398438 C 212.785156 198.398438 173.925781 237.261719 173.925781 285.199219 C 173.925781 333.136719 212.789062 372 260.726562 372 Z M 266.925781 291.398438 Z M 266.925781 291.398438 " style=" stroke:none;fill-rule:nonzero;fill:rgb(50.196078%,46.27451%,30.196078%);fill-opacity:1;" />
<path d="M 217.324219 62 L 217.324219 334.800781 L 6.527344 334.800781 L 6.527344 43.398438 L 25.125 55.800781 L 203.5 55.800781 C 207.023438 59.730469 212.046875 61.984375 217.324219 62 Z M 217.324219 62 " style=" stroke:none;fill-rule:nonzero;fill:rgb(0%,84.313725%,87.45098%);fill-opacity:1;" />
<path d="M 254.527344 365.800781 C 302.464844 365.800781 341.324219 326.9375 341.324219 279 C 341.324219 231.058594 302.464844 192.199219 254.527344 192.199219 C 206.589844 192.199219 167.726562 231.0625 167.726562 279 C 167.726562 326.9375 206.585938 365.800781 254.527344 365.800781 Z M 254.527344 279 Z M 254.527344 279 " style=" stroke:none;fill-rule:nonzero;fill:rgb(100%,31.372549%,13.72549%);fill-opacity:1;" />
<path d="M 260.726562 272.800781 L 260.726562 217 L 248.324219 217 L 248.324219 272.800781 L 192.523438 272.800781 L 192.523438 285.199219 L 248.324219 285.199219 L 248.324219 334.800781 L 260.726562 334.800781 L 260.726562 285.199219 L 316.523438 285.199219 L 316.523438 272.800781 Z M 260.726562 272.800781 " style=" stroke:none;fill-rule:nonzero;fill:rgb(40%,90.588235%,92.54902%);fill-opacity:1;" />
<path d="M 204.121094 30.257812 C 200.664062 33.761719 198.726562 38.480469 198.726562 43.398438 C 198.761719 53.65625 207.070312 61.960938 217.324219 62 L 217.324219 74.402344 L 37.527344 74.402344 C 20.417969 74.367188 6.558594 60.507812 6.527344 43.398438 C 6.503906 36.96875 8.523438 30.695312 12.292969 25.484375 C 12.464844 25.203125 12.648438 24.933594 12.847656 24.675781 C 13.675781 23.535156 14.589844 22.457031 15.578125 21.453125 C 21.417969 15.667969 29.304688 12.417969 37.523438 12.398438 L 217.324219 12.398438 L 217.324219 24.800781 C 212.375 24.796875 207.625 26.757812 204.121094 30.257812 Z M 204.121094 30.257812 " style=" stroke:none;fill-rule:nonzero;fill:rgb(100%,92.156863%,60%);fill-opacity:1;" />
<path d="M 254.527344 186 C 243.957031 186.023438 233.472656 187.859375 223.527344 191.425781 L 223.527344 49.597656 C 213.253906 49.597656 204.925781 41.273438 204.925781 31 C 204.925781 20.726562 213.253906 12.398438 223.527344 12.398438 L 223.527344 0 L 31.324219 0 C 14.203125 -0.00390625 0.324219 13.871094 0.320312 30.992188 C 0.320312 33.078125 0.527344 35.15625 0.945312 37.199219 L 0.324219 37.199219 L 0.324219 334.800781 C 0.324219 338.222656 3.101562 341 6.527344 341 L 185.402344 341 C 219.675781 379.207031 278.4375 382.394531 316.644531 348.117188 C 354.851562 313.839844 358.035156 255.082031 323.761719 216.875 C 306.121094 197.210938 280.941406 185.984375 254.527344 186 Z M 18.132812 17.867188 C 21.632812 14.371094 26.378906 12.40625 31.324219 12.398438 L 198.882812 12.398438 C 190.402344 23.351562 190.402344 38.648438 198.882812 49.597656 L 31.324219 49.597656 C 21.054688 49.613281 12.714844 41.292969 12.707031 31.019531 C 12.699219 26.089844 14.652344 21.359375 18.132812 17.867188 Z M 12.726562 328.601562 L 12.726562 55.640625 C 18.058594 59.742188 24.59375 61.976562 31.324219 62 L 211.125 62 L 211.125 196.8125 C 165.800781 220.613281 148.351562 276.644531 172.148438 321.96875 C 173.339844 324.230469 174.621094 326.445312 175.988281 328.601562 Z M 254.527344 359.601562 C 210.011719 359.601562 173.925781 323.515625 173.925781 279 C 173.925781 234.484375 210.011719 198.402344 254.527344 198.402344 C 299.039062 198.402344 335.125 234.484375 335.125 279 C 335.074219 323.492188 299.019531 359.550781 254.527344 359.601562 Z M 254.527344 359.601562 " style=" stroke:none;fill-rule:nonzero;fill:rgb(13.72549%,12.156863%,12.54902%);fill-opacity:1;" />
<path d="M 260.726562 272.800781 L 260.726562 217 L 248.324219 217 L 248.324219 272.800781 L 192.523438 272.800781 L 192.523438 285.199219 L 248.324219 285.199219 L 248.324219 334.800781 L 260.726562 334.800781 L 260.726562 285.199219 L 316.523438 285.199219 L 316.523438 272.800781 Z M 260.726562 272.800781 " style=" stroke:none;fill-rule:nonzero;fill:rgb(13.72549%,12.156863%,12.54902%);fill-opacity:1;" />
</g>
</svg>